<svg width="20" height="12" viewBox="0 0 20 12" fill="none" xmlns="http://www.w3.org/2000/svg">
<path d="M10 0.5C8.61778 0.5 7.49724 1.62071 7.49724 3.00318C7.49724 4.38564 8.61778 5.50636 10 5.50636C11.3823 5.50636 12.5028 4.38564 12.5028 3.00318C12.5028 1.62071 11.3823 0.5 10 0.5Z" fill="#4C4C4C"/>
<path d="M7.33039 6.84138C5.94814 6.84138 4.8276 7.96209 4.8276 9.34456V10.1378C4.8276 10.6405 5.19193 11.0692 5.68807 11.1503C8.54381 11.6166 11.4563 11.6166 14.312 11.1503C14.8081 11.0692 15.1725 10.6405 15.1725 10.1378V9.34456C15.1725 7.96209 14.0519 6.84138 12.6697 6.84138H12.4422C12.319 6.84138 12.1967 6.86086 12.0796 6.89908L11.502 7.08773C10.526 7.40646 9.47402 7.40646 8.49808 7.08773L7.92043 6.89908C7.80338 6.86086 7.68102 6.84138 7.55789 6.84138H7.33039Z" fill="#4C4C4C"/>
<path d="M16.5517 10.1219V9.34456C16.5517 8.44758 16.2464 7.62051 15.7333 6.96262C16.2597 7.03512 16.7982 6.98618 17.3083 6.8158L17.7319 6.67431C17.8178 6.64564 17.9075 6.63104 17.9978 6.63104H18.1646C19.1783 6.63104 20 7.47157 20 8.50842V9.10332C20 9.48041 19.7328 9.80194 19.369 9.8627C18.4357 10.0186 17.4942 10.105 16.5517 10.1219Z" fill="#4C4C4C"/>
<path d="M14.3715 3.75238C14.3715 2.71553 15.1932 1.875 16.2069 1.875C17.2205 1.875 18.0423 2.71553 18.0423 3.75238C18.0423 4.78923 17.2205 5.62977 16.2069 5.62977C15.1932 5.62977 14.3715 4.78923 14.3715 3.75238Z" fill="#4C4C4C"/>
<path d="M4.26668 6.96262C3.75358 7.62051 3.44829 8.44758 3.44829 9.34456V10.1219C2.50584 10.105 1.5643 10.0186 0.631014 9.8627C0.267174 9.80194 0 9.48041 0 9.10332V8.50842C0 7.47157 0.821727 6.63104 1.83538 6.63104H2.00221C2.09251 6.63104 2.18224 6.64564 2.26807 6.67431L2.69169 6.8158C3.20181 6.98618 3.74027 7.03512 4.26668 6.96262Z" fill="#4C4C4C"/>
<path d="M1.95774 3.75238C1.95774 2.71553 2.77946 1.875 3.79311 1.875C4.80677 1.875 5.62849 2.71553 5.62849 3.75238C5.62849 4.78923 4.80677 5.62977 3.79311 5.62977C2.77946 5.62977 1.95774 4.78923 1.95774 3.75238Z" fill="#4C4C4C"/>
</svg>
